<svg width="82" height="82" viewBox="0 0 82 82" fill="none" xmlns="http://www.w3.org/2000/svg">
<path d="M41 0.375C32.9652 0.375 25.1107 2.75761 18.43 7.22155C11.7492 11.6855 6.54222 18.0302 3.46741 25.4535C0.392602 32.8767 -0.411908 41.0451 1.15562 48.9255C2.72314 56.806 6.5923 64.0447 12.2738 69.7262C17.9553 75.4077 25.194 79.2769 33.0745 80.8444C40.955 82.4119 49.1233 81.6074 56.5465 78.5326C63.9698 75.4578 70.3145 70.2508 74.7785 63.57C79.2424 56.8893 81.625 49.0349 81.625 41C81.6136 30.2291 77.3299 19.9025 69.7137 12.2863C62.0975 4.67015 51.7709 0.386374 41 0.375ZM75.375 41C75.375 43.3438 68.7344 47.3398 56.3242 49.2695C56.5235 46.5352 56.625 43.7695 56.625 41C56.625 28.4062 54.5352 15.7188 50.4766 7.95313C57.6466 10.0207 63.9511 14.361 68.4414 20.3209C72.9318 26.2808 75.365 33.5379 75.375 41ZM41 6.625C44.1836 6.625 50.375 18.7578 50.375 41C50.375 44.2188 50.2422 47.2188 50.0117 50.0117C47.2188 50.2422 44.2188 50.375 41 50.375C18.7578 50.375 6.62502 44.1836 6.62502 41C6.63536 31.8864 10.2603 23.1489 16.7046 16.7046C23.149 10.2603 31.8864 6.63534 41 6.625ZM7.95314 50.4766C15.7188 54.5352 28.4063 56.625 41 56.625C43.7696 56.625 46.543 56.5234 49.2695 56.3242C47.3399 68.7344 43.3438 75.375 41 75.375C33.5379 75.365 26.2808 72.9318 20.3209 68.4414C14.3611 63.9511 10.0207 57.6465 7.95314 50.4766ZM50.4766 74.0469C52.9336 69.3594 54.668 62.8477 55.6563 55.6562C62.8477 54.668 69.3281 52.9219 74.0469 50.4766C72.4266 56.0753 69.4155 61.1728 65.2941 65.2941C61.1728 69.4155 56.0753 72.4266 50.4766 74.0469Z" fill="black"/>
</svg>
