<svg width="76" height="79" viewBox="0 0 76 79" fill="none" xmlns="http://www.w3.org/2000/svg">
<path d="M75.5 75.375C75.5 76.2038 75.1708 76.9987 74.5847 77.5847C73.9987 78.1708 73.2038 78.5 72.375 78.5H3.625C2.7962 78.5 2.00134 78.1708 1.41529 77.5847C0.829241 76.9987 0.5 76.2038 0.5 75.375C0.5 74.5462 0.829241 73.7513 1.41529 73.1653C2.00134 72.5792 2.7962 72.25 3.625 72.25H72.375C73.2038 72.25 73.9987 72.5792 74.5847 73.1653C75.1708 73.7513 75.5 74.5462 75.5 75.375ZM41.125 59.75V22.25C41.125 20.5924 41.7835 19.0027 42.9556 17.8306C44.1277 16.6585 45.7174 16 47.375 16H63C64.6576 16 66.2473 16.6585 67.4194 17.8306C68.5915 19.0027 69.25 20.5924 69.25 22.25V59.75C69.25 61.4076 68.5915 62.9973 67.4194 64.1694C66.2473 65.3415 64.6576 66 63 66H47.375C45.7174 66 44.1277 65.3415 42.9556 64.1694C41.7835 62.9973 41.125 61.4076 41.125 59.75ZM47.375 59.75H63V22.25H47.375V59.75ZM6.75 59.75V6.625C6.75 4.9674 7.40848 3.37768 8.58058 2.20558C9.75268 1.03348 11.3424 0.375 13 0.375H28.625C30.2826 0.375 31.8723 1.03348 33.0444 2.20558C34.2165 3.37768 34.875 4.9674 34.875 6.625V59.75C34.875 61.4076 34.2165 62.9973 33.0444 64.1694C31.8723 65.3415 30.2826 66 28.625 66H13C11.3424 66 9.75268 65.3415 8.58058 64.1694C7.40848 62.9973 6.75 61.4076 6.75 59.75ZM13 59.75H28.625V6.625H13V59.75Z" fill="black"/>
</svg>
