<svg width="91" height="70" viewBox="0 0 91 70" fill="none" xmlns="http://www.w3.org/2000/svg">
<path d="M81.5 13.125H75.25V10C75.25 7.5136 74.2623 5.12903 72.5041 3.37087C70.746 1.61272 68.3614 0.625 65.875 0.625H9.625C7.1386 0.625 4.75403 1.61272 2.99587 3.37087C1.23772 5.12903 0.25 7.5136 0.25 10V47.5C0.25 49.9864 1.23772 52.371 2.99587 54.1291C4.75403 55.8873 7.1386 56.875 9.625 56.875H53.375V60C53.375 62.4864 54.3627 64.871 56.1209 66.6291C57.879 68.3873 60.2636 69.375 62.75 69.375H81.5C83.9864 69.375 86.371 68.3873 88.1291 66.6291C89.8873 64.871 90.875 62.4864 90.875 60V22.5C90.875 20.0136 89.8873 17.629 88.1291 15.8709C86.371 14.1127 83.9864 13.125 81.5 13.125ZM9.625 50.625C8.7962 50.625 8.00134 50.2958 7.41529 49.7097C6.82924 49.1237 6.5 48.3288 6.5 47.5V10C6.5 9.1712 6.82924 8.37634 7.41529 7.79029C8.00134 7.20424 8.7962 6.875 9.625 6.875H65.875C66.7038 6.875 67.4987 7.20424 68.0847 7.79029C68.6708 8.37634 69 9.1712 69 10V13.125H62.75C60.2636 13.125 57.879 14.1127 56.1209 15.8709C54.3627 17.629 53.375 20.0136 53.375 22.5V50.625H9.625ZM84.625 60C84.625 60.8288 84.2958 61.6237 83.7097 62.2097C83.1237 62.7958 82.3288 63.125 81.5 63.125H62.75C61.9212 63.125 61.1263 62.7958 60.5403 62.2097C59.9542 61.6237 59.625 60.8288 59.625 60V22.5C59.625 21.6712 59.9542 20.8763 60.5403 20.2903C61.1263 19.7042 61.9212 19.375 62.75 19.375H81.5C82.3288 19.375 83.1237 19.7042 83.7097 20.2903C84.2958 20.8763 84.625 21.6712 84.625 22.5V60ZM47.125 66.25C47.125 67.0788 46.7958 67.8737 46.2097 68.4597C45.6237 69.0458 44.8288 69.375 44 69.375H28.375C27.5462 69.375 26.7513 69.0458 26.1653 68.4597C25.5792 67.8737 25.25 67.0788 25.25 66.25C25.25 65.4212 25.5792 64.6263 26.1653 64.0403C26.7513 63.4542 27.5462 63.125 28.375 63.125H44C44.8288 63.125 45.6237 63.4542 46.2097 64.0403C46.7958 64.6263 47.125 65.4212 47.125 66.25ZM78.375 28.75C78.375 29.5788 78.0458 30.3737 77.4597 30.9597C76.8737 31.5458 76.0788 31.875 75.25 31.875H69C68.1712 31.875 67.3763 31.5458 66.7903 30.9597C66.2042 30.3737 65.875 29.5788 65.875 28.75C65.875 27.9212 66.2042 27.1263 66.7903 26.5403C67.3763 25.9542 68.1712 25.625 69 25.625H75.25C76.0788 25.625 76.8737 25.9542 77.4597 26.5403C78.0458 27.1263 78.375 27.9212 78.375 28.75Z" fill="black"/>
</svg>
