<svg width="85" height="76" viewBox="0 0 85 76" fill="none" xmlns="http://www.w3.org/2000/svg">
<path d="M59.5 31.75H78.25C79.9076 31.75 81.4973 31.0915 82.6694 29.9194C83.8415 28.7473 84.5 27.1576 84.5 25.5V6.75C84.5 5.0924 83.8415 3.50268 82.6694 2.33058C81.4973 1.15848 79.9076 0.5 78.25 0.5H59.5C57.8424 0.5 56.2527 1.15848 55.0806 2.33058C53.9085 3.50268 53.25 5.0924 53.25 6.75V13H47C44.5136 13 42.129 13.9877 40.3709 15.7459C38.6127 17.504 37.625 19.8886 37.625 22.375V34.875H25.125V31.75C25.125 30.0924 24.4665 28.5027 23.2944 27.3306C22.1223 26.1585 20.5326 25.5 18.875 25.5H6.375C4.7174 25.5 3.12769 26.1585 1.95558 27.3306C0.78348 28.5027 0.125 30.0924 0.125 31.75V44.25C0.125 45.9076 0.78348 47.4973 1.95558 48.6694C3.12769 49.8415 4.7174 50.5 6.375 50.5H18.875C20.5326 50.5 22.1223 49.8415 23.2944 48.6694C24.4665 47.4973 25.125 45.9076 25.125 44.25V41.125H37.625V53.625C37.625 56.1114 38.6127 58.496 40.3709 60.2541C42.129 62.0123 44.5136 63 47 63H53.25V69.25C53.25 70.9076 53.9085 72.4973 55.0806 73.6694C56.2527 74.8415 57.8424 75.5 59.5 75.5H78.25C79.9076 75.5 81.4973 74.8415 82.6694 73.6694C83.8415 72.4973 84.5 70.9076 84.5 69.25V50.5C84.5 48.8424 83.8415 47.2527 82.6694 46.0806C81.4973 44.9085 79.9076 44.25 78.25 44.25H59.5C57.8424 44.25 56.2527 44.9085 55.0806 46.0806C53.9085 47.2527 53.25 48.8424 53.25 50.5V56.75H47C46.1712 56.75 45.3763 56.4208 44.7903 55.8347C44.2042 55.2487 43.875 54.4538 43.875 53.625V22.375C43.875 21.5462 44.2042 20.7513 44.7903 20.1653C45.3763 19.5792 46.1712 19.25 47 19.25H53.25V25.5C53.25 27.1576 53.9085 28.7473 55.0806 29.9194C56.2527 31.0915 57.8424 31.75 59.5 31.75ZM18.875 44.25H6.375V31.75H18.875V44.25ZM59.5 50.5H78.25V69.25H59.5V50.5ZM59.5 6.75H78.25V25.5H59.5V6.75Z" fill="black"/>
</svg>
