<svg width="76" height="82" viewBox="0 0 76 82" fill="none" xmlns="http://www.w3.org/2000/svg">
<path d="M38 12.875C35.5277 12.875 33.111 13.6081 31.0554 14.9816C28.9998 16.3551 27.3976 18.3074 26.4515 20.5915C25.5054 22.8755 25.2579 25.3889 25.7402 27.8136C26.2225 30.2384 27.413 32.4657 29.1612 34.2138C30.9093 35.962 33.1366 37.1525 35.5614 37.6348C37.9861 38.1171 40.4995 37.8696 42.7835 36.9235C45.0676 35.9774 47.0199 34.3752 48.3934 32.3196C49.7669 30.264 50.5 27.8473 50.5 25.375C50.5 22.0598 49.183 18.8804 46.8388 16.5362C44.4946 14.192 41.3152 12.875 38 12.875ZM38 31.625C36.7639 31.625 35.5555 31.2584 34.5277 30.5717C33.4999 29.8849 32.6988 28.9088 32.2258 27.7668C31.7527 26.6247 31.6289 25.3681 31.8701 24.1557C32.1112 22.9433 32.7065 21.8297 33.5806 20.9556C34.4547 20.0815 35.5683 19.4862 36.7807 19.2451C37.9931 19.0039 39.2497 19.1277 40.3918 19.6008C41.5338 20.0738 42.5099 20.8749 43.1967 21.9027C43.8834 22.9305 44.25 24.1389 44.25 25.375C44.25 27.0326 43.5915 28.6223 42.4194 29.7944C41.2473 30.9665 39.6576 31.625 38 31.625ZM38 44.125C35.5277 44.125 33.111 44.8581 31.0554 46.2316C28.9998 47.6051 27.3976 49.5574 26.4515 51.8415C25.5054 54.1255 25.2579 56.6389 25.7402 59.0636C26.2225 61.4884 27.413 63.7157 29.1612 65.4638C30.9093 67.212 33.1366 68.4025 35.5614 68.8848C37.9861 69.3671 40.4995 69.1196 42.7835 68.1735C45.0676 67.2274 47.0199 65.6252 48.3934 63.5696C49.7669 61.514 50.5 59.0973 50.5 56.625C50.5 53.3098 49.183 50.1304 46.8388 47.7862C44.4946 45.442 41.3152 44.125 38 44.125ZM38 62.875C36.7639 62.875 35.5555 62.5084 34.5277 61.8217C33.4999 61.1349 32.6988 60.1588 32.2258 59.0168C31.7527 57.8747 31.6289 56.6181 31.8701 55.4057C32.1112 54.1933 32.7065 53.0797 33.5806 52.2056C34.4547 51.3315 35.5683 50.7362 36.7807 50.4951C37.9931 50.2539 39.2497 50.3777 40.3918 50.8508C41.5338 51.3238 42.5099 52.1249 43.1967 53.1527C43.8834 54.1805 44.25 55.3889 44.25 56.625C44.25 58.2826 43.5915 59.8723 42.4194 61.0444C41.2473 62.2165 39.6576 62.875 38 62.875ZM72.375 47.25H66.125V22.25H72.375C73.2038 22.25 73.9987 21.9208 74.5847 21.3347C75.1708 20.7487 75.5 19.9538 75.5 19.125C75.5 18.2962 75.1708 17.5013 74.5847 16.9153C73.9987 16.3292 73.2038 16 72.375 16H66.125V6.625C66.125 4.9674 65.4665 3.37768 64.2944 2.20558C63.1223 1.03348 61.5326 0.375 59.875 0.375H16.125C14.4674 0.375 12.8777 1.03348 11.7056 2.20558C10.5335 3.37768 9.875 4.9674 9.875 6.625V16H3.625C2.7962 16 2.00134 16.3292 1.41529 16.9153C0.829241 17.5013 0.5 18.2962 0.5 19.125C0.5 19.9538 0.829241 20.7487 1.41529 21.3347C2.00134 21.9208 2.7962 22.25 3.625 22.25H9.875V47.25H3.625C2.7962 47.25 2.00134 47.5792 1.41529 48.1653C0.829241 48.7513 0.5 49.5462 0.5 50.375C0.5 51.2038 0.829241 51.9987 1.41529 52.5847C2.00134 53.1708 2.7962 53.5 3.625 53.5H9.875V75.375C9.875 77.0326 10.5335 78.6223 11.7056 79.7944C12.8777 80.9665 14.4674 81.625 16.125 81.625H59.875C61.5326 81.625 63.1223 80.9665 64.2944 79.7944C65.4665 78.6223 66.125 77.0326 66.125 75.375V53.5H72.375C73.2038 53.5 73.9987 53.1708 74.5847 52.5847C75.1708 51.9987 75.5 51.2038 75.5 50.375C75.5 49.5462 75.1708 48.7513 74.5847 48.1653C73.9987 47.5792 73.2038 47.25 72.375 47.25ZM59.875 75.375H16.125V6.625H59.875V75.375Z" fill="black"/>
</svg>
