<svg width="82" height="84" viewBox="0 0 82 84" fill="none" xmlns="http://www.w3.org/2000/svg">
<path d="M80.1602 17.6367L78.3399 16.5859C78.5534 15.4553 78.5534 14.2947 78.3399 13.1641L80.1602 12.1133C80.8781 11.6989 81.4021 11.0162 81.6167 10.2156C81.8314 9.41486 81.7191 8.5617 81.3047 7.84375C80.8903 7.1258 80.2077 6.60188 79.407 6.38724C78.6063 6.1726 77.7531 6.28482 77.0352 6.69922L75.211 7.75391C74.338 7.00491 73.3342 6.42355 72.25 6.03906V3.9375C72.25 3.1087 71.9208 2.31384 71.3347 1.72779C70.7487 1.14174 69.9538 0.8125 69.125 0.8125C68.2962 0.8125 67.5014 1.14174 66.9153 1.72779C66.3293 2.31384 66 3.1087 66 3.9375V6.03906C64.9159 6.42355 63.9121 7.00491 63.0391 7.75391L61.2149 6.69922C60.8594 6.49403 60.467 6.36087 60.06 6.30734C59.653 6.25381 59.2395 6.28096 58.8431 6.38724C58.4466 6.49352 58.075 6.67684 57.7494 6.92675C57.4237 7.17666 57.1505 7.48826 56.9454 7.84375C56.7402 8.19924 56.607 8.59167 56.5535 8.99862C56.4999 9.40558 56.5271 9.81909 56.6334 10.2156C56.7396 10.612 56.923 10.9837 57.1729 11.3093C57.4228 11.6349 57.7344 11.9081 58.0899 12.1133L59.9102 13.1641C59.6966 14.2947 59.6966 15.4553 59.9102 16.5859L58.0899 17.6367C57.4938 17.9805 57.0278 18.5115 56.7643 19.1472C56.5008 19.7829 56.4545 20.4878 56.6326 21.1525C56.8107 21.8172 57.2032 22.4045 57.7492 22.8233C58.2952 23.2421 58.9642 23.469 59.6524 23.4688C60.2011 23.4705 60.7403 23.3262 61.2149 23.0508L63.0391 21.9961C63.9121 22.7451 64.9159 23.3265 66 23.7109V25.8125C66 26.6413 66.3293 27.4362 66.9153 28.0222C67.5014 28.6083 68.2962 28.9375 69.125 28.9375C69.9538 28.9375 70.7487 28.6083 71.3347 28.0222C71.9208 27.4362 72.25 26.6413 72.25 25.8125V23.7109C73.3342 23.3265 74.338 22.7451 75.211 21.9961L77.0352 23.0508C77.5097 23.3262 78.049 23.4705 78.5977 23.4688C79.2858 23.469 79.9548 23.2421 80.5008 22.8233C81.0469 22.4045 81.4394 21.8172 81.6175 21.1525C81.7955 20.4878 81.7492 19.7829 81.4857 19.1472C81.2223 18.5115 80.7563 17.9805 80.1602 17.6367ZM66 14.875C66 14.2569 66.1833 13.6527 66.5267 13.1388C66.8701 12.6249 67.3581 12.2244 67.9292 11.9879C68.5002 11.7514 69.1285 11.6895 69.7347 11.81C70.3409 11.9306 70.8977 12.2283 71.3347 12.6653C71.7718 13.1023 72.0694 13.6592 72.19 14.2653C72.3106 14.8715 72.2487 15.4999 72.0122 16.0709C71.7756 16.6419 71.3751 17.13 70.8612 17.4733C70.3473 17.8167 69.7431 18 69.125 18C68.2962 18 67.5014 17.6708 66.9153 17.0847C66.3293 16.4987 66 15.7038 66 14.875ZM77.4649 33.668C76.6475 33.8048 75.9179 34.2606 75.4366 34.9353C74.9553 35.61 74.7618 36.4482 74.8985 37.2656C75.2158 39.1606 75.3752 41.0786 75.375 43C75.3824 51.4148 72.2897 59.5375 66.6875 65.8164C63.2023 60.7659 58.3015 56.8587 52.6016 54.5859C55.6634 52.1744 57.8976 48.8687 58.9935 45.1285C60.0894 41.3883 59.9926 37.3996 58.7165 33.717C57.4404 30.0344 55.0484 26.841 51.8732 24.5808C48.698 22.3207 44.8975 21.1062 41 21.1062C37.1026 21.1062 33.302 22.3207 30.1268 24.5808C26.9517 26.841 24.5597 30.0344 23.2836 33.717C22.0075 37.3996 21.9106 41.3883 23.0066 45.1285C24.1025 48.8687 26.3367 52.1744 29.3985 54.5859C23.6985 56.8587 18.7978 60.7659 15.3125 65.8164C10.9169 60.8631 8.04563 54.7456 7.04396 48.1994C6.04229 41.6532 6.95286 34.9569 9.6662 28.9159C12.3795 22.8748 16.7801 17.7462 22.3388 14.1465C27.8975 10.5469 34.3776 8.62951 41 8.625C42.9214 8.62469 44.8395 8.7841 46.7344 9.10156C47.5481 9.22996 48.3796 9.03185 49.048 8.55035C49.7165 8.06884 50.1677 7.34289 50.3036 6.5304C50.4396 5.71791 50.2492 4.88461 49.7739 4.21176C49.2986 3.53892 48.5769 3.08096 47.7657 2.9375C39.2791 1.50982 30.5584 2.81615 22.8627 6.66787C15.1669 10.5196 8.89443 16.7174 4.95076 24.3664C1.00709 32.0154 -0.403653 40.7198 0.922215 49.2229C2.24808 57.7259 6.24195 65.5876 12.3272 71.6729C18.4124 77.7581 26.2741 81.752 34.7772 83.0778C43.2802 84.4037 51.9846 82.993 59.6336 79.0493C67.2827 75.1056 73.4804 68.8331 77.3322 61.1374C81.1839 53.4416 82.4902 44.7209 81.0625 36.2344C80.9258 35.417 80.4699 34.6874 79.7952 34.2061C79.1205 33.7248 78.2823 33.5313 77.4649 33.668ZM28.5 39.875C28.5 37.4027 29.2332 34.986 30.6067 32.9304C31.9802 30.8748 33.9324 29.2726 36.2165 28.3265C38.5006 27.3804 41.0139 27.1329 43.4387 27.6152C45.8634 28.0975 48.0907 29.288 49.8389 31.0362C51.587 32.7843 52.7775 35.0116 53.2599 37.4364C53.7422 39.8611 53.4946 42.3745 52.5485 44.6585C51.6024 46.9426 50.0003 48.8949 47.9447 50.2684C45.8891 51.6419 43.4723 52.375 41 52.375C37.6848 52.375 34.5054 51.058 32.1612 48.7138C29.817 46.3696 28.5 43.1902 28.5 39.875ZM19.9375 70.1484C22.1982 66.6128 25.3126 63.7032 28.9935 61.6877C32.6744 59.6723 36.8035 58.6158 41 58.6158C45.1966 58.6158 49.3257 59.6723 53.0066 61.6877C56.6875 63.7032 59.8019 66.6128 62.0625 70.1484C56.0404 74.832 48.629 77.3747 41 77.3747C33.371 77.3747 25.9597 74.832 19.9375 70.1484Z" fill="black"/>
</svg>
