<svg width="79" height="70" viewBox="0 0 79 70" fill="none" xmlns="http://www.w3.org/2000/svg">
<path d="M72.375 13H9.875C9.0462 13 8.25134 12.6708 7.66529 12.0847C7.07924 11.4987 6.75 10.7038 6.75 9.875C6.75 9.0462 7.07924 8.25134 7.66529 7.66529C8.25134 7.07924 9.0462 6.75 9.875 6.75H63C63.8288 6.75 64.6237 6.42076 65.2097 5.83471C65.7958 5.24866 66.125 4.4538 66.125 3.625C66.125 2.7962 65.7958 2.00134 65.2097 1.41529C64.6237 0.829241 63.8288 0.5 63 0.5H9.875C7.3886 0.5 5.00403 1.48772 3.24587 3.24587C1.48772 5.00403 0.5 7.3886 0.5 9.875V59.875C0.5 62.3614 1.48772 64.746 3.24587 66.5041C5.00403 68.2623 7.3886 69.25 9.875 69.25H72.375C74.0326 69.25 75.6223 68.5915 76.7944 67.4194C77.9665 66.2473 78.625 64.6576 78.625 63V19.25C78.625 17.5924 77.9665 16.0027 76.7944 14.8306C75.6223 13.6585 74.0326 13 72.375 13ZM72.375 63H9.875C9.0462 63 8.25134 62.6708 7.66529 62.0847C7.07924 61.4987 6.75 60.7038 6.75 59.875V18.7148C7.75342 19.0705 8.8104 19.2516 9.875 19.25H72.375V63ZM53.625 39.5625C53.625 38.6354 53.8999 37.7291 54.415 36.9583C54.9301 36.1874 55.6621 35.5866 56.5187 35.2318C57.3752 34.877 58.3177 34.7842 59.227 34.9651C60.1363 35.1459 60.9715 35.5924 61.6271 36.2479C62.2826 36.9035 62.7291 37.7387 62.9099 38.648C63.0908 39.5573 62.998 40.4998 62.6432 41.3563C62.2884 42.2129 61.6876 42.9449 60.9167 43.46C60.1459 43.9751 59.2396 44.25 58.3125 44.25C57.0693 44.25 55.877 43.7561 54.9979 42.8771C54.1189 41.998 53.625 40.8057 53.625 39.5625Z" fill="black"/>
</svg>
